<svg id="Layer_1" data-name="Layer 1" xmlns="http://www.w3.org/2000/svg" viewBox="0 0 297.3 297.3">
  <defs>
    <style>
      .cls-1 {
        fill: #c26bdf;
      }

      .cls-2 {
        fill: #fff;
      }
    </style>
  </defs>
  <title>WF_LandingPage_Dec10-19</title>
  <g>
    <circle class="cls-1" cx="148.65" cy="148.65" r="148.65"/>
    <g>
      <path class="cls-2" d="M175.5,123.16a29.17,29.17,0,0,1-47.38,0,19.32,19.32,0,0,0-13.66,18.47v26.51h74.71V141.63A19.33,19.33,0,0,0,175.5,123.16Z"/>
      <path class="cls-2" d="M258.33,163.77a29.17,29.17,0,0,1-47.38,0,19.3,19.3,0,0,0-13.66,18.46v26.51H272V182.23A19.31,19.31,0,0,0,258.33,163.77Z"/>
      <path class="cls-2" d="M92.67,163.77a29.17,29.17,0,0,1-47.38,0,19.3,19.3,0,0,0-13.66,18.46v26.51h74.71V182.23A19.31,19.31,0,0,0,92.67,163.77Z"/>
      <ellipse class="cls-2" cx="68.75" cy="136.44" rx="23.82" ry="28.43"/>
      <ellipse class="cls-2" cx="151.74" cy="92.51" rx="23.82" ry="28.43"/>
      <ellipse class="cls-2" cx="234.72" cy="134" rx="23.82" ry="28.43"/>
    </g>
  </g>
</svg>
