<svg id="Layer_1" data-name="Layer 1" xmlns="http://www.w3.org/2000/svg" viewBox="0 0 297.3 297.3">
  <defs>
    <style>
      .cls-1 {
        fill: #f0b742;
      }

      .cls-2 {
        fill: #fff;
      }

      .cls-3 {
        fill: none;
        stroke: #fff;
        stroke-linecap: round;
        stroke-miterlimit: 10;
        stroke-width: 9px;
      }
    </style>
  </defs>
  <title>WF_LandingPage_Dec10-19</title>
  <g>
    <circle class="cls-1" cx="148.65" cy="148.65" r="148.65"/>
    <g>
      <path class="cls-2" d="M123.49,202.42h50a0,0,0,0,1,0,0v11.72a2.2,2.2,0,0,1-2.2,2.2H125.69a2.2,2.2,0,0,1-2.2-2.2V202.42a0,0,0,0,1,0,0Z"/>
      <path class="cls-2" d="M130.3,221.39h36.36a0,0,0,0,1,0,0v11.72a2.2,2.2,0,0,1-2.2,2.2h-32a2.2,2.2,0,0,1-2.2-2.2V221.39A0,0,0,0,1,130.3,221.39Z"/>
      <path class="cls-2" d="M148.48,85.3c-30.42,0-55.08,23.63-55.08,52.78,0,15.63,25.34,48.6,26.14,57.94.13,1.55,57.41,1,57.7-1,1.88-12.39,26.32-40.83,26.32-56.94C203.56,108.93,178.9,85.3,148.48,85.3Z"/>
      <line class="cls-3" x1="78.55" y1="76.15" x2="94.33" y2="89.81"/>
      <line class="cls-3" x1="221.89" y1="78.47" x2="206.11" y2="92.13"/>
      <line class="cls-3" x1="152.54" y1="43.55" x2="152.54" y2="64.42"/>
      <line class="cls-3" x1="57.75" y1="159.69" x2="78.02" y2="154.7"/>
      <line class="cls-3" x1="240.37" y1="159.69" x2="220.1" y2="154.7"/>
    </g>
  </g>
</svg>
